<svg width="21" height="26" viewBox="0 0 21 26" fill="none" xmlns="http://www.w3.org/2000/svg">
<path fill-rule="evenodd" clip-rule="evenodd" d="M17.033 9.72973V13.6543C17.033 16.3506 17.9939 18.7422 19.8882 20.763C19.9964 20.8782 20.0354 21.0484 19.9895 21.2037C19.9435 21.3595 19.8207 21.4751 19.6706 21.5026L15.8113 22.2178C15.0964 22.3504 14.4376 22.4591 13.8101 22.5486C13.1008 24.0418 11.7068 25 10.1838 25C8.6612 25 7.26753 24.0422 6.55788 22.5499C5.92795 22.46 5.26589 22.3509 4.54689 22.2178L0.687157 21.5026C0.537095 21.4747 0.413873 21.3595 0.368325 21.2037C0.322778 21.0479 0.361819 20.8782 0.469587 20.763C2.27887 18.8334 3.19633 16.4418 3.19633 13.6543V9.72711C3.21259 6.96978 5.0166 4.84735 6.79701 3.96678C7.21263 3.76082 7.64085 3.59632 8.0764 3.47021V3.18178C8.0764 1.97875 8.98857 1 10.1098 1C11.231 1 12.1431 1.97875 12.1431 3.18178V3.43225C12.6267 3.56184 13.1025 3.73639 13.564 3.96286C15.1753 4.7531 17.0504 6.73764 17.033 9.72973ZM10.1097 1.87274C9.43707 1.87274 8.88969 2.46008 8.88969 3.18181V3.28173C9.69694 3.14166 10.5192 3.13643 11.3297 3.26123V3.18181C11.3297 2.46008 10.7823 1.87274 10.1097 1.87274ZM10.1841 24.1268C9.15443 24.1268 8.19225 23.5779 7.57451 22.6803C8.48342 22.7807 9.33174 22.8313 10.1797 22.8313C11.0308 22.8313 11.882 22.7807 12.7946 22.679C12.1764 23.5775 11.2138 24.1268 10.1841 24.1268ZM13.5018 21.7116C14.1777 21.6191 14.893 21.5017 15.6734 21.3573L18.7869 20.7809C17.1041 18.7352 16.2196 16.2873 16.2196 13.6547V9.72755C16.2338 7.31406 14.7263 5.49272 13.2261 4.75658C12.723 4.51004 12.2009 4.33026 11.6706 4.21158C11.6681 4.21116 11.6656 4.21153 11.6631 4.21189C11.6603 4.2123 11.6575 4.2127 11.6547 4.21201C10.6409 3.98903 9.57457 3.99994 8.57213 4.24168C8.57009 4.24212 8.56796 4.24223 8.56582 4.24234C8.56369 4.24245 8.56155 4.24256 8.55952 4.24299C8.07436 4.36212 7.59733 4.53186 7.13738 4.7592C5.59081 5.52457 4.02349 7.35814 4.00967 9.72973V13.6543C4.00967 16.3999 3.18941 18.7928 1.56963 20.78L4.68474 21.3569C5.4684 21.5017 6.18658 21.62 6.86491 21.7121H6.86857C7.16382 21.7522 7.45093 21.7875 7.73235 21.8177L7.76 21.8203C8.01173 21.8473 8.25817 21.8691 8.50177 21.8879C8.55301 21.8918 8.60385 21.8953 8.65468 21.8988C8.869 21.9141 9.08087 21.9254 9.29112 21.9346C9.31369 21.9355 9.33637 21.9366 9.35904 21.9377C9.38171 21.9387 9.40438 21.9398 9.42695 21.9407C9.93245 21.9586 10.4314 21.9586 10.9373 21.9403C10.9635 21.9395 10.9899 21.9382 11.0162 21.937C11.0336 21.9361 11.051 21.9353 11.0683 21.9346C11.2822 21.9259 11.4973 21.9137 11.7149 21.8984C11.7617 21.8953 11.8088 21.8918 11.856 21.8883C12.1073 21.8691 12.3611 21.8465 12.621 21.8185C12.6234 21.8185 12.6254 21.8181 12.6279 21.8181C12.9113 21.7875 13.2009 21.7522 13.499 21.7116H13.5018Z" fill="#222222"/>
<path d="M17.033 9.72973L16.933 9.72915V9.72973H17.033ZM19.8882 20.763L19.8153 20.8314L19.8153 20.8314L19.8882 20.763ZM19.9895 21.2037L19.8936 21.1753L19.8936 21.1754L19.9895 21.2037ZM19.6706 21.5026L19.6526 21.4042L19.6524 21.4043L19.6706 21.5026ZM15.8113 22.2178L15.7931 22.1195L15.7931 22.1195L15.8113 22.2178ZM13.8101 22.5486L13.796 22.4496L13.7428 22.4571L13.7198 22.5056L13.8101 22.5486ZM6.55788 22.5499L6.64819 22.5069L6.62514 22.4584L6.57201 22.4509L6.55788 22.5499ZM4.54689 22.2178L4.52867 22.3161L4.52869 22.3161L4.54689 22.2178ZM0.687157 21.5026L0.66886 21.6009L0.668937 21.6009L0.687157 21.5026ZM0.368325 21.2037L0.272344 21.2318L0.368325 21.2037ZM0.469587 20.763L0.396639 20.6946L0.39656 20.6947L0.469587 20.763ZM3.19633 9.72711L3.09633 9.72652V9.72711H3.19633ZM6.79701 3.96678L6.84134 4.05642L6.84141 4.05638L6.79701 3.96678ZM8.0764 3.47021L8.10421 3.56626L8.1764 3.54536V3.47021H8.0764ZM12.1431 3.43225H12.0431V3.50897L12.1172 3.52884L12.1431 3.43225ZM13.564 3.96286L13.52 4.05263L13.52 4.05264L13.564 3.96286ZM8.88969 3.28173H8.78969V3.40058L8.90679 3.38026L8.88969 3.28173ZM11.3297 3.26123L11.3145 3.36006L11.4297 3.3778V3.26123H11.3297ZM7.57451 22.6803L7.58549 22.5809L7.3682 22.5569L7.49213 22.737L7.57451 22.6803ZM12.7946 22.679L12.8769 22.7357L13.001 22.5554L12.7835 22.5796L12.7946 22.679ZM15.6734 21.3573L15.6916 21.4556H15.6917L15.6734 21.3573ZM13.5018 21.7116V21.8126L13.5154 21.8107L13.5018 21.7116ZM18.7869 20.7809L18.8051 20.8792L18.9719 20.8483L18.8642 20.7173L18.7869 20.7809ZM16.2196 9.72755L16.1196 9.72696V9.72755H16.2196ZM13.2261 4.75658L13.2701 4.66681L13.2701 4.66679L13.2261 4.75658ZM11.6706 4.21158L11.6924 4.11383L11.6869 4.11291L11.6706 4.21158ZM11.6631 4.21189L11.6487 4.11293L11.6487 4.11293L11.6631 4.21189ZM11.6547 4.21201L11.6787 4.11491L11.6762 4.11435L11.6547 4.21201ZM8.57213 4.24168L8.59311 4.33949L8.59557 4.3389L8.57213 4.24168ZM8.56582 4.24234L8.56073 4.14247H8.56072L8.56582 4.24234ZM8.55952 4.24299L8.53853 4.14518L8.53567 4.14588L8.55952 4.24299ZM7.13738 4.7592L7.09307 4.66955L7.09303 4.66958L7.13738 4.7592ZM4.00967 9.72973L3.90967 9.72915V9.72973H4.00967ZM1.56963 20.78L1.49212 20.7168L1.38551 20.8476L1.55142 20.8783L1.56963 20.78ZM4.68474 21.3569L4.66653 21.4552L4.66656 21.4552L4.68474 21.3569ZM6.86491 21.7121L6.85134 21.8121H6.86491V21.7121ZM6.86857 21.7121L6.88217 21.6121H6.86857V21.7121ZM7.73235 21.8177L7.72171 21.9171L7.72292 21.9172L7.73235 21.8177ZM7.76 21.8203L7.77069 21.7208L7.76943 21.7207L7.76 21.8203ZM8.50177 21.8879L8.49409 21.9876L8.49413 21.9876L8.50177 21.8879ZM8.65468 21.8988L8.66179 21.7991L8.66153 21.7991L8.65468 21.8988ZM9.29112 21.9346L9.28677 22.0345L9.28726 22.0345L9.29112 21.9346ZM9.42695 21.9407L9.42308 22.0406L9.42342 22.0406L9.42695 21.9407ZM10.9373 21.9403L10.9343 21.8403L10.9337 21.8403L10.9373 21.9403ZM11.0162 21.937L11.0209 22.0368H11.021L11.0162 21.937ZM11.0683 21.9346L11.0723 22.0345L11.0724 22.0345L11.0683 21.9346ZM11.7149 21.8984L11.7084 21.7986L11.7079 21.7986L11.7149 21.8984ZM11.856 21.8883L11.8634 21.9881L11.8636 21.9881L11.856 21.8883ZM12.621 21.8185V21.718L12.6103 21.7191L12.621 21.8185ZM12.6279 21.8181V21.9187L12.6386 21.9175L12.6279 21.8181ZM13.499 21.7116V21.6107L13.4855 21.6125L13.499 21.7116ZM17.133 13.6543V9.72973H16.933V13.6543H17.133ZM19.9612 20.6946C18.0837 18.6918 17.133 16.3244 17.133 13.6543H16.933C16.933 16.3767 17.9041 18.7926 19.8153 20.8314L19.9612 20.6946ZM20.0854 21.2321C20.1411 21.0438 20.0944 20.8365 19.9611 20.6945L19.8153 20.8314C19.8984 20.9199 19.9298 21.053 19.8936 21.1753L20.0854 21.2321ZM19.6887 21.601C19.879 21.5661 20.0297 21.4207 20.0854 21.232L19.8936 21.1754C19.8573 21.2982 19.7624 21.3841 19.6526 21.4042L19.6887 21.601ZM15.8295 22.3161L19.6889 21.6009L19.6524 21.4043L15.7931 22.1195L15.8295 22.3161ZM13.8242 22.6476C14.4532 22.5579 15.1134 22.449 15.8296 22.3161L15.7931 22.1195C15.0794 22.2519 14.4219 22.3603 13.796 22.4496L13.8242 22.6476ZM10.1838 25.1C11.7504 25.1 13.1769 24.1147 13.9004 22.5915L13.7198 22.5056C13.0248 23.9688 11.6631 24.9 10.1838 24.9V25.1ZM6.46758 22.5928C7.1915 24.1152 8.61754 25.1 10.1838 25.1V24.9C8.70485 24.9 7.34356 23.9692 6.64819 22.5069L6.46758 22.5928ZM4.52869 22.3161C5.24888 22.4494 5.91231 22.5588 6.54376 22.6489L6.57201 22.4509C5.94359 22.3612 5.28289 22.2523 4.56509 22.1195L4.52869 22.3161ZM0.668937 21.6009L4.52867 22.3161L4.56511 22.1195L0.705376 21.4043L0.668937 21.6009ZM0.272344 21.2318C0.327689 21.4211 0.479063 21.5656 0.66886 21.6009L0.705453 21.4043C0.595127 21.3838 0.500057 21.2979 0.464307 21.1756L0.272344 21.2318ZM0.39656 20.6947C0.263821 20.8366 0.21722 21.0432 0.272344 21.2318L0.464307 21.1756C0.428336 21.0526 0.459816 20.9198 0.542613 20.8313L0.39656 20.6947ZM3.09633 13.6543C3.09633 16.4178 2.18755 18.7846 0.396639 20.6946L0.542535 20.8314C2.3702 18.8822 3.29633 16.4657 3.29633 13.6543H3.09633ZM3.09633 9.72711V13.6543H3.29633V9.72711H3.09633ZM6.75268 3.87715C4.94451 4.77144 3.11286 6.92497 3.09633 9.72652L3.29633 9.7277C3.31233 7.01459 5.08868 4.92326 6.84134 4.05642L6.75268 3.87715ZM8.04859 3.37415C7.60754 3.50186 7.17374 3.66849 6.75261 3.87718L6.84141 4.05638C7.25151 3.85316 7.67417 3.69078 8.10421 3.56626L8.04859 3.37415ZM7.9764 3.18178V3.47021H8.1764V3.18178H7.9764ZM10.1098 0.9C8.92682 0.9 7.9764 1.93027 7.9764 3.18178H8.1764C8.1764 2.02722 9.05031 1.1 10.1098 1.1V0.9ZM12.2431 3.18178C12.2431 1.93027 11.2927 0.9 10.1098 0.9V1.1C11.1692 1.1 12.0431 2.02722 12.0431 3.18178H12.2431ZM12.2431 3.43225V3.18178H12.0431V3.43225H12.2431ZM13.6081 3.87308C13.1403 3.64358 12.6584 3.46682 12.169 3.33566L12.1172 3.52884C12.5949 3.65687 13.0646 3.8292 13.52 4.05263L13.6081 3.87308ZM17.133 9.73032C17.1507 6.69244 15.2465 4.67667 13.6081 3.87307L13.52 4.05264C15.104 4.82952 16.9502 6.78285 16.933 9.72915L17.133 9.73032ZM8.98969 3.18181C8.98969 2.50855 9.49882 1.97274 10.1097 1.97274V1.77274C9.37533 1.77274 8.78969 2.4116 8.78969 3.18181H8.98969ZM8.98969 3.28173V3.18181H8.78969V3.28173H8.98969ZM11.3449 3.16239C10.5239 3.03598 9.69074 3.04125 8.8726 3.18321L8.90679 3.38026C9.70314 3.24208 10.5145 3.23688 11.3145 3.36006L11.3449 3.16239ZM11.2297 3.18181V3.26123H11.4297V3.18181H11.2297ZM10.1097 1.97274C10.7206 1.97274 11.2297 2.50855 11.2297 3.18181H11.4297C11.4297 2.4116 10.8441 1.77274 10.1097 1.77274V1.97274ZM7.49213 22.737C8.1263 23.6585 9.11778 24.2268 10.1841 24.2268V24.0268C9.19109 24.0268 8.25819 23.4973 7.65689 22.6236L7.49213 22.737ZM10.1797 22.7313C9.33584 22.7313 8.49121 22.6809 7.58549 22.5809L7.56354 22.7797C8.47564 22.8804 9.32765 22.9313 10.1797 22.9313V22.7313ZM12.7835 22.5796C11.8742 22.6809 11.0267 22.7313 10.1797 22.7313V22.9313C11.0349 22.9313 11.8898 22.8804 12.8056 22.7784L12.7835 22.5796ZM10.1841 24.2268C11.2505 24.2268 12.2424 23.658 12.8769 22.7357L12.7122 22.6223C12.1105 23.4969 11.1771 24.0268 10.1841 24.0268V24.2268ZM15.6552 21.259C14.876 21.4032 14.1623 21.5203 13.4883 21.6125L13.5154 21.8107C14.1931 21.7179 14.91 21.6003 15.6916 21.4556L15.6552 21.259ZM18.7687 20.6825L15.6552 21.259L15.6917 21.4556L18.8051 20.8792L18.7687 20.6825ZM16.1196 13.6547C16.1196 16.3107 17.0123 18.7811 18.7097 20.8444L18.8642 20.7173C17.1959 18.6894 16.3196 16.2638 16.3196 13.6547H16.1196ZM16.1196 9.72755V13.6547H16.3196V9.72755H16.1196ZM13.182 4.84636C14.6523 5.56779 16.1336 7.35657 16.1196 9.72696L16.3196 9.72814C16.3341 7.27156 14.8003 5.41765 13.2701 4.66681L13.182 4.84636ZM11.6487 4.30916C12.1717 4.4262 12.6864 4.60343 13.1821 4.84638L13.2701 4.66679C12.7597 4.41665 12.2301 4.23433 11.6924 4.11399L11.6487 4.30916ZM11.6775 4.31085C11.6794 4.31057 11.6768 4.31099 11.6736 4.31121C11.6699 4.31147 11.6629 4.31167 11.6543 4.31024L11.6869 4.11291C11.6757 4.11107 11.6663 4.11125 11.6601 4.11167C11.6543 4.11206 11.6493 4.11285 11.6487 4.11293L11.6775 4.31085ZM11.6307 4.30908C11.6442 4.31242 11.6558 4.31262 11.6636 4.31225C11.6707 4.31192 11.677 4.31093 11.6775 4.31084L11.6487 4.11293C11.6464 4.11326 11.6499 4.11268 11.6542 4.11248C11.6592 4.11224 11.668 4.1123 11.6787 4.11494L11.6307 4.30908ZM8.59557 4.3389C9.58323 4.10072 10.6342 4.08995 11.6332 4.30968L11.6762 4.11435C10.6476 3.88812 9.56592 3.89916 8.54868 4.14447L8.59557 4.3389ZM8.57092 4.34221C8.57154 4.34218 8.58185 4.34187 8.59311 4.33946L8.55115 4.14391C8.55535 4.14301 8.55857 4.14267 8.56 4.14254C8.56123 4.14243 8.56213 4.1424 8.56073 4.14247L8.57092 4.34221ZM8.5805 4.34077C8.5763 4.34167 8.57307 4.34201 8.57165 4.34214C8.57042 4.34225 8.56952 4.34228 8.57092 4.34221L8.56072 4.14247C8.56011 4.1425 8.54979 4.1428 8.53854 4.14522L8.5805 4.34077ZM7.1817 4.84885C7.63472 4.62493 8.10484 4.4576 8.58337 4.34011L8.53567 4.14588C8.04388 4.26663 7.55994 4.43879 7.09307 4.66955L7.1817 4.84885ZM4.10966 9.73031C4.12323 7.40339 5.66244 5.6007 7.18174 4.84883L7.09303 4.66958C5.51918 5.44844 3.92375 7.31288 3.90967 9.72915L4.10966 9.73031ZM4.10966 13.6543V9.72973H3.90967V13.6543H4.10966ZM1.64714 20.8432C3.28251 18.8369 4.10966 16.4212 4.10966 13.6543H3.90967C3.90967 16.3786 3.0963 18.7488 1.49212 20.7168L1.64714 20.8432ZM4.70295 21.2585L1.58784 20.6817L1.55142 20.8783L4.66653 21.4552L4.70295 21.2585ZM6.87836 21.613C6.20199 21.5212 5.48544 21.4032 4.70292 21.2585L4.66656 21.4552C5.45136 21.6003 6.17117 21.7188 6.85146 21.8111L6.87836 21.613ZM6.86857 21.6121H6.86491V21.8121H6.86857V21.6121ZM7.74299 21.7182C7.46264 21.6882 7.17648 21.653 6.88205 21.613L6.8551 21.8111C7.15115 21.8514 7.43922 21.8869 7.72171 21.9171L7.74299 21.7182ZM7.76943 21.7207L7.74177 21.7181L7.72292 21.9172L7.75057 21.9198L7.76943 21.7207ZM8.50945 21.7882C8.26662 21.7695 8.0212 21.7478 7.77069 21.7208L7.74932 21.9197C8.00226 21.9469 8.24973 21.9688 8.49409 21.9876L8.50945 21.7882ZM8.66153 21.7991C8.61063 21.7956 8.56019 21.7921 8.50941 21.7882L8.49413 21.9876C8.54583 21.9916 8.59706 21.9951 8.64783 21.9986L8.66153 21.7991ZM9.29548 21.8347C9.08588 21.8256 8.87496 21.8143 8.66179 21.7991L8.64757 21.9986C8.86304 22.0139 9.07586 22.0253 9.28677 22.0345L9.29548 21.8347ZM9.36384 21.8378C9.34125 21.8367 9.31811 21.8356 9.29498 21.8347L9.28726 22.0345C9.30928 22.0354 9.33148 22.0364 9.35423 22.0375L9.36384 21.8378ZM9.43082 21.8408C9.4088 21.8399 9.3866 21.8389 9.36384 21.8378L9.35423 22.0375C9.37682 22.0386 9.39997 22.0397 9.42308 22.0406L9.43082 21.8408ZM10.9337 21.8403C10.4302 21.8586 9.93363 21.8586 9.43049 21.8408L9.42342 22.0406C9.93127 22.0586 10.4326 22.0586 10.941 22.0402L10.9337 21.8403ZM11.0114 21.8371C10.9849 21.8383 10.9595 21.8396 10.9343 21.8403L10.9403 22.0402C10.9676 22.0394 10.9948 22.0381 11.0209 22.0368L11.0114 21.8371ZM11.0643 21.8347C11.0465 21.8354 11.0287 21.8362 11.0114 21.8371L11.021 22.0368C11.0384 22.036 11.0554 22.0352 11.0723 22.0345L11.0643 21.8347ZM11.7079 21.7986C11.4912 21.8138 11.277 21.826 11.0642 21.8347L11.0724 22.0345C11.2873 22.0257 11.5035 22.0135 11.7219 21.9981L11.7079 21.7986ZM11.8486 21.7886C11.8014 21.7921 11.7546 21.7956 11.7084 21.7986L11.7214 21.9982C11.7687 21.9951 11.8163 21.9916 11.8634 21.9881L11.8486 21.7886ZM12.6103 21.7191C12.3516 21.7469 12.0988 21.7695 11.8484 21.7886L11.8636 21.9881C12.1158 21.9688 12.3706 21.946 12.6316 21.918L12.6103 21.7191ZM12.6279 21.7181C12.6211 21.7181 12.6154 21.7187 12.6147 21.7188C12.6131 21.7189 12.6166 21.7185 12.621 21.7185V21.9185C12.6277 21.9185 12.6335 21.9179 12.6341 21.9178C12.6357 21.9177 12.6322 21.9181 12.6279 21.9181V21.7181ZM13.4855 21.6125C13.1883 21.653 12.8996 21.6882 12.6172 21.7187L12.6386 21.9175C12.923 21.8869 13.2135 21.8514 13.5125 21.8107L13.4855 21.6125ZM13.5018 21.6116H13.499V21.8116H13.5018V21.6116Z" fill="#222222"/>
<path d="M13.1966 5.60449C11.4784 4.79881 9.37439 4.7979 7.66769 5.6054C6.6944 6.06578 5.04358 7.41282 5.03028 9.54234C5.02895 9.79346 5.22582 9.99818 5.47103 10C5.47192 10 5.47281 10 5.47369 10C5.71712 10 5.91577 9.79847 5.9171 9.5478C5.9273 7.87503 7.25576 6.80231 8.03883 6.43154C9.51539 5.73232 11.3405 5.73414 12.8272 6.43154C13.0503 6.53618 13.3132 6.43564 13.4152 6.20727C13.5172 5.97844 13.4187 5.70866 13.1966 5.60449Z" fill="#222222" stroke="#222222" stroke-width="0.2"/>
<path d="M16.7319 11.25C18.6948 11.25 20.2584 9.55527 20.2584 7.5C20.2584 5.44473 18.6948 3.75 16.7319 3.75C14.769 3.75 13.2054 5.44473 13.2054 7.5C13.2054 9.55527 14.769 11.25 16.7319 11.25Z" fill="#F03737" stroke="white" stroke-width="0.5"/>
</svg>
